<svg width="825" height="94" viewBox="0 0 825 94" fill="none" xmlns="http://www.w3.org/2000/svg">
<path d="M18.2344 42.2188C16.9219 42.2188 15.6719 41.9688 14.4844 41.4688C13.3281 40.9375 12.3125 40.25 11.4375 39.4062C10.5625 38.5312 9.875 37.5156 9.375 36.3594C8.875 35.1719 8.625 33.9219 8.625 32.6094V13.3906C8.625 12.0781 8.875 10.8438 9.375 9.6875C9.875 8.5 10.5625 7.48438 11.4375 6.64062C12.3125 5.76562 13.3281 5.07813 14.4844 4.57812C15.6719 4.04688 16.9219 3.78125 18.2344 3.78125H50.8594C52.1719 3.78125 53.4062 4.04688 54.5625 4.57812C55.75 5.07813 56.7812 5.76562 57.6562 6.64062C58.5312 7.48438 59.2188 8.5 59.7188 9.6875C60.2188 10.8438 60.4688 12.0781 60.4688 13.3906V22.0625H50.8594V13.3906H18.2344V32.6094H50.8594C52.1719 32.6094 53.4062 32.8594 54.5625 33.3594C55.75 33.8594 56.7812 34.5469 57.6562 35.4219C58.5312 36.2969 59.2188 37.3281 59.7188 38.5156C60.2188 39.6719 60.4688 40.9062 60.4688 42.2188V61.3906C60.4688 62.7031 60.2188 63.9531 59.7188 65.1406C59.2188 66.2969 58.5312 67.3125 57.6562 68.1875C56.7812 69.0625 55.75 69.75 54.5625 70.25C53.4062 70.75 52.1719 71 50.8594 71H17.2969C15.9844 71 14.7344 70.75 13.5469 70.25C12.3906 69.75 11.375 69.0625 10.5 68.1875C9.625 67.3125 8.9375 66.2969 8.4375 65.1406C7.9375 63.9531 7.6875 62.7031 7.6875 61.3906V52.7656H17.2969V61.3906H50.8594V42.2188H18.2344ZM135.516 3.78125V71H125.906V42.2188H87.4219V71H77.8125V3.78125H87.4219V32.6094H125.906V3.78125H135.516ZM210.422 61.3906C210.422 62.7031 210.172 63.9531 209.672 65.1406C209.172 66.2969 208.484 67.3125 207.609 68.1875C206.734 69.0625 205.703 69.75 204.516 70.25C203.359 70.75 202.125 71 200.812 71H162.422C161.109 71 159.859 70.75 158.672 70.25C157.516 69.75 156.5 69.0625 155.625 68.1875C154.75 67.3125 154.062 66.2969 153.562 65.1406C153.062 63.9531 152.812 62.7031 152.812 61.3906V13.3906C152.812 12.0781 153.062 10.8438 153.562 9.6875C154.062 8.5 154.75 7.48438 155.625 6.64062C156.5 5.76562 157.516 5.07813 158.672 4.57812C159.859 4.04688 161.109 3.78125 162.422 3.78125H200.812C202.125 3.78125 203.359 4.04688 204.516 4.57812C205.703 5.07813 206.734 5.76562 207.609 6.64062C208.484 7.48438 209.172 8.5 209.672 9.6875C210.172 10.8438 210.422 12.0781 210.422 13.3906V61.3906ZM162.422 13.3906V61.3906H200.812V13.3906H162.422ZM227.719 13.3906C227.719 12.0781 227.969 10.8438 228.469 9.6875C228.969 8.5 229.656 7.48438 230.531 6.64062C231.406 5.76562 232.422 5.07813 233.578 4.57812C234.766 4.04688 236.016 3.78125 237.328 3.78125H273.797C275.109 3.78125 276.344 4.04688 277.5 4.57812C278.688 5.07813 279.719 5.76562 280.594 6.64062C281.469 7.48438 282.156 8.5 282.656 9.6875C283.156 10.8438 283.406 12.0781 283.406 13.3906V22.0625H273.797V13.3906H237.328V61.3906H273.797V52.7656H283.406V61.3906C283.406 62.7031 283.156 63.9531 282.656 65.1406C282.156 66.2969 281.469 67.3125 280.594 68.1875C279.719 69.0625 278.688 69.75 277.5 70.25C276.344 70.75 275.109 71 273.797 71H237.328C236.016 71 234.766 70.75 233.578 70.25C232.422 69.75 231.406 69.0625 230.531 68.1875C229.656 67.3125 228.969 66.2969 228.469 65.1406C227.969 63.9531 227.719 62.7031 227.719 61.3906V13.3906ZM308.391 3.78125V32.7969L340.453 3.78125H354L317.625 36.7344L355.453 71H341.906L308.391 40.7656V71H298.781V3.78125H308.391ZM450.609 61.3906C450.609 62.7031 450.359 63.9531 449.859 65.1406C449.359 66.2969 448.672 67.3125 447.797 68.1875C446.922 69.0625 445.891 69.75 444.703 70.25C443.547 70.75 442.312 71 441 71H402.609C401.297 71 400.047 70.75 398.859 70.25C397.703 69.75 396.688 69.0625 395.812 68.1875C394.938 67.3125 394.25 66.2969 393.75 65.1406C393.25 63.9531 393 62.7031 393 61.3906V13.3906C393 12.0781 393.25 10.8438 393.75 9.6875C394.25 8.5 394.938 7.48438 395.812 6.64062C396.688 5.76562 397.703 5.07813 398.859 4.57812C400.047 4.04688 401.297 3.78125 402.609 3.78125H441C442.312 3.78125 443.547 4.04688 444.703 4.57812C445.891 5.07813 446.922 5.76562 447.797 6.64062C448.672 7.48438 449.359 8.5 449.859 9.6875C450.359 10.8438 450.609 12.0781 450.609 13.3906V61.3906ZM402.609 13.3906V61.3906H441V13.3906H402.609ZM473.766 32.1406H466.969L473.859 17.7969H466.969V3.78125H480.984V17.7969L473.766 32.1406ZM495.375 13.3906C495.375 12.0781 495.625 10.8438 496.125 9.6875C496.625 8.5 497.312 7.48438 498.188 6.64062C499.062 5.76562 500.078 5.07813 501.234 4.57812C502.422 4.04688 503.672 3.78125 504.984 3.78125H541.453C542.766 3.78125 544 4.04688 545.156 4.57812C546.344 5.07813 547.375 5.76562 548.25 6.64062C549.125 7.48438 549.812 8.5 550.312 9.6875C550.812 10.8438 551.062 12.0781 551.062 13.3906V22.0625H541.453V13.3906H504.984V61.3906H541.453V52.7656H551.062V61.3906C551.062 62.7031 550.812 63.9531 550.312 65.1406C549.812 66.2969 549.125 67.3125 548.25 68.1875C547.375 69.0625 546.344 69.75 545.156 70.25C544 70.75 542.766 71 541.453 71H504.984C503.672 71 502.422 70.75 501.234 70.25C500.078 69.75 499.062 69.0625 498.188 68.1875C497.312 67.3125 496.625 66.2969 496.125 65.1406C495.625 63.9531 495.375 62.7031 495.375 61.3906V13.3906ZM576.047 3.78125V61.3906H610.594V71H566.438V3.78125H576.047ZM679.734 61.3906C679.734 62.7031 679.484 63.9531 678.984 65.1406C678.484 66.2969 677.797 67.3125 676.922 68.1875C676.047 69.0625 675.016 69.75 673.828 70.25C672.672 70.75 671.438 71 670.125 71H631.734C630.422 71 629.172 70.75 627.984 70.25C626.828 69.75 625.812 69.0625 624.938 68.1875C624.062 67.3125 623.375 66.2969 622.875 65.1406C622.375 63.9531 622.125 62.7031 622.125 61.3906V13.3906C622.125 12.0781 622.375 10.8438 622.875 9.6875C623.375 8.5 624.062 7.48438 624.938 6.64062C625.812 5.76562 626.828 5.07813 627.984 4.57812C629.172 4.04688 630.422 3.78125 631.734 3.78125H670.125C671.438 3.78125 672.672 4.04688 673.828 4.57812C675.016 5.07813 676.047 5.76562 676.922 6.64062C677.797 7.48438 678.484 8.5 678.984 9.6875C679.484 10.8438 679.734 12.0781 679.734 13.3906V61.3906ZM631.734 13.3906V61.3906H670.125V13.3906H631.734ZM697.031 13.3906C697.031 12.0781 697.281 10.8438 697.781 9.6875C698.281 8.5 698.969 7.48438 699.844 6.64062C700.719 5.76562 701.734 5.07813 702.891 4.57812C704.078 4.04688 705.328 3.78125 706.641 3.78125H743.109C744.422 3.78125 745.656 4.04688 746.812 4.57812C748 5.07813 749.031 5.76562 749.906 6.64062C750.781 7.48438 751.469 8.5 751.969 9.6875C752.469 10.8438 752.719 12.0781 752.719 13.3906V22.0625H743.109V13.3906H706.641V61.3906H743.109V52.7656H752.719V61.3906C752.719 62.7031 752.469 63.9531 751.969 65.1406C751.469 66.2969 750.781 67.3125 749.906 68.1875C749.031 69.0625 748 69.75 746.812 70.25C745.656 70.75 744.422 71 743.109 71H706.641C705.328 71 704.078 70.75 702.891 70.25C701.734 69.75 700.719 69.0625 699.844 68.1875C698.969 67.3125 698.281 66.2969 697.781 65.1406C697.281 63.9531 697.031 62.7031 697.031 61.3906V13.3906ZM777.703 3.78125V32.7969L809.766 3.78125H823.312L786.938 36.7344L824.766 71H811.219L777.703 40.7656V71H768.094V3.78125H777.703Z" fill="url(#paint0_linear_1_25)"/>
<path d="M450.609 61.6094C450.609 62.9219 450.359 64.1719 449.859 65.3594C449.359 66.5156 448.672 67.5312 447.797 68.4062C446.922 69.2812 445.891 69.9688 444.703 70.4688C443.547 70.9688 442.312 71.2188 441 71.2188H402.609C401.297 71.2188 400.047 70.9688 398.859 70.4688C397.703 69.9688 396.688 69.2812 395.812 68.4062C394.938 67.5312 394.25 66.5156 393.75 65.3594C393.25 64.1719 393 62.9219 393 61.6094V13.6094C393 12.2969 393.25 11.0625 393.75 9.90625C394.25 8.71875 394.938 7.70312 395.812 6.85938C396.688 5.98438 397.703 5.29688 398.859 4.79688C400.047 4.26562 401.297 4 402.609 4H441C442.312 4 443.547 4.26562 444.703 4.79688C445.891 5.29688 446.922 5.98438 447.797 6.85938C448.672 7.70312 449.359 8.71875 449.859 9.90625C450.359 11.0625 450.609 12.2969 450.609 13.6094V61.6094ZM402.609 13.6094V61.6094H441V13.6094H402.609Z" fill="url(#paint1_linear_1_25)"/>
<circle cx="421.875" cy="37.7188" r="4.5" fill="#E98632"/>
<rect x="420.375" y="7.21875" width="3" height="28" rx="1.5" fill="#E98632"/>
<rect x="431.967" y="48.6045" width="3" height="13" rx="1.5" transform="rotate(144.66 431.967 48.6045)" fill="#E98632"/>
<defs>
<linearGradient id="paint0_linear_1_25" x1="0" y1="47" x2="825" y2="47" gradientUnits="userSpaceOnUse">
<stop stop-color="#D41D1D"/>
<stop offset="1" stop-color="#FCEA45"/>
</linearGradient>
<linearGradient id="paint1_linear_1_25" x1="384.375" y1="47.2188" x2="459.375" y2="47.2188" gradientUnits="userSpaceOnUse">
<stop stop-color="#E87F30"/>
<stop offset="1" stop-color="#EA8D33"/>
</linearGradient>
</defs>
</svg>
